<svg width="32" height="32" viewBox="0 0 32 32" fill="none" xmlns="http://www.w3.org/2000/svg">
<path d="M31.5 15C31.5 24.9871 23 31.5 18 31.5C10 31.5 0 21.9871 0 12C0 3 8.01285 0 18 0C27.9871 0 31.5 5.01285 31.5 15Z" fill="#026460"/>
<path d="M11.7033 27V5.13H21.0633C23.4433 5.13 25.3433 5.76 26.7633 7.02C28.1833 8.26 28.8933 10.02 28.8933 12.3C28.8933 13.74 28.5833 15.01 27.9633 16.11C27.3433 17.19 26.4533 18.04 25.2933 18.66C24.1333 19.26 22.7233 19.56 21.0633 19.56L16.3833 19.53V27H11.7033ZM20.2833 9.09H16.3833V15.9L20.2833 15.93C20.9833 15.93 21.6233 15.83 22.2033 15.63C22.7833 15.41 23.2533 15.05 23.6133 14.55C23.9733 14.03 24.1533 13.34 24.1533 12.48C24.1533 11.62 23.9733 10.95 23.6133 10.47C23.2533 9.97 22.7833 9.62 22.2033 9.42C21.6233 9.2 20.9833 9.09 20.2833 9.09Z" fill="white"/>
</svg>
