<svg width="120" height="32" viewBox="0 0 120 32" fill="none" xmlns="http://www.w3.org/2000/svg">
<path d="M31.5 15C31.5 24.9871 23 31.5 18 31.5C10 31.5 0 21.9871 0 12C0 3 8.01285 0 18 0C27.9871 0 31.5 5.01285 31.5 15Z" fill="#026460"/>
<path d="M11.7033 27V5.13H21.0633C23.4433 5.13 25.3433 5.76 26.7633 7.02C28.1833 8.26 28.8933 10.02 28.8933 12.3C28.8933 13.74 28.5833 15.01 27.9633 16.11C27.3433 17.19 26.4533 18.04 25.2933 18.66C24.1333 19.26 22.7233 19.56 21.0633 19.56L16.3833 19.53V27H11.7033ZM20.2833 9.09H16.3833V15.9L20.2833 15.93C20.9833 15.93 21.6233 15.83 22.2033 15.63C22.7833 15.41 23.2533 15.05 23.6133 14.55C23.9733 14.03 24.1533 13.34 24.1533 12.48C24.1533 11.62 23.9733 10.95 23.6133 10.47C23.2533 9.97 22.7833 9.62 22.2033 9.42C21.6233 9.2 20.9833 9.09 20.2833 9.09Z" fill="white"/>
<path d="M33.764 25V9.992H37.488L37.656 12.4H37.796C38.132 11.4293 38.664 10.7573 39.392 10.384C40.1387 9.992 40.988 9.796 41.94 9.796H42.78V13.66H41.856C40.4747 13.66 39.476 13.968 38.86 14.584C38.244 15.1813 37.9173 16.04 37.88 17.16V25H33.764ZM49.7702 25.252C47.9782 25.252 46.5315 24.608 45.4302 23.32C44.3288 22.0133 43.7782 20.072 43.7782 17.496C43.7782 14.9013 44.3288 12.96 45.4302 11.672C46.5315 10.3653 47.9782 9.712 49.7702 9.712C50.9275 9.712 51.9168 9.97333 52.7382 10.496C53.5782 11.0187 54.1755 11.7187 54.5302 12.596H54.7542L54.9222 9.992H58.8702V25H54.7542V22.368H54.5302C54.1755 23.2267 53.5782 23.9267 52.7382 24.468C51.9168 24.9907 50.9275 25.252 49.7702 25.252ZM51.3382 21.92C52.1035 21.92 52.7288 21.7427 53.2142 21.388C53.7182 21.0333 54.0915 20.576 54.3342 20.016C54.5768 19.4373 54.6982 18.8307 54.6982 18.196V16.768C54.6982 16.1147 54.5768 15.508 54.3342 14.948C54.0915 14.388 53.7182 13.9307 53.2142 13.576C52.7288 13.2213 52.1035 13.044 51.3382 13.044C50.3302 13.044 49.5182 13.408 48.9022 14.136C48.2862 14.8453 47.9782 15.9653 47.9782 17.496C47.9782 19.008 48.2862 20.128 48.9022 20.856C49.5182 21.5653 50.3302 21.92 51.3382 21.92ZM62.3929 25V9.992H66.3409L66.5089 12.708H66.6769C67.0876 11.7187 67.7222 10.972 68.5809 10.468C69.4396 9.964 70.4009 9.712 71.4649 9.712C72.4729 9.712 73.3689 9.91733 74.1529 10.328C74.9556 10.7387 75.5902 11.4013 76.0569 12.316C76.5236 13.212 76.7569 14.416 76.7569 15.928V25H72.6409V16.824C72.6409 15.5547 72.4169 14.612 71.9689 13.996C71.5209 13.38 70.8022 13.072 69.8129 13.072C68.7489 13.072 67.9276 13.436 67.3489 14.164C66.7889 14.8733 66.5089 15.704 66.5089 16.656V25H62.3929ZM80.139 8.06V4.588H84.255V8.06H80.139ZM80.139 25V9.992H84.255V25H80.139ZM93.7059 25.28C91.5219 25.28 89.8325 24.8227 88.6379 23.908C87.4619 22.9747 86.8832 21.7613 86.9019 20.268H90.9339C90.9525 21.0707 91.2325 21.6493 91.7739 22.004C92.3339 22.34 93.0152 22.508 93.8179 22.508C94.6579 22.508 95.2925 22.368 95.7219 22.088C96.1512 21.7893 96.3659 21.388 96.3659 20.884C96.3659 20.1933 96.1139 19.7453 95.6099 19.54C95.1245 19.3347 94.3499 19.1573 93.2859 19.008C92.1845 18.8587 91.1765 18.644 90.2619 18.364C89.3472 18.0653 88.6192 17.6173 88.0779 17.02C87.5552 16.4227 87.2939 15.5733 87.2939 14.472C87.2939 12.8853 87.8912 11.7 89.0859 10.916C90.2992 10.1133 91.8859 9.712 93.8459 9.712C95.7685 9.712 97.2992 10.132 98.4379 10.972C99.5765 11.7933 100.165 12.9507 100.202 14.444H96.1699C96.1699 13.8093 95.9459 13.324 95.4979 12.988C95.0685 12.652 94.4805 12.484 93.7339 12.484C92.9685 12.484 92.3899 12.6333 91.9979 12.932C91.6059 13.212 91.4099 13.5853 91.4099 14.052C91.4099 14.612 91.6619 15.004 92.1659 15.228C92.6699 15.452 93.4725 15.6387 94.5739 15.788C95.3579 15.9 96.1045 16.04 96.8139 16.208C97.5232 16.3573 98.1485 16.6 98.6899 16.936C99.2499 17.2533 99.6885 17.7013 100.006 18.28C100.342 18.84 100.51 19.5773 100.51 20.492C100.51 22.1347 99.9032 23.348 98.6899 24.132C97.4765 24.8973 95.8152 25.28 93.7059 25.28ZM103.272 25V4.588H107.388V12.708H107.556C107.966 11.7187 108.601 10.972 109.46 10.468C110.318 9.964 111.28 9.712 112.344 9.712C113.352 9.712 114.248 9.91733 115.032 10.328C115.834 10.7387 116.469 11.4013 116.936 12.316C117.402 13.212 117.636 14.416 117.636 15.928V25H113.52V16.824C113.52 15.5547 113.296 14.612 112.848 13.996C112.4 13.38 111.681 13.072 110.692 13.072C109.628 13.072 108.806 13.436 108.228 14.164C107.668 14.8733 107.388 15.704 107.388 16.656V25H103.272Z" fill="black"/>
</svg>
