<svg width="17" height="19" viewBox="0 0 17 19" fill="none" xmlns="http://www.w3.org/2000/svg">
<path fill-rule="evenodd" clip-rule="evenodd" d="M14.28 14.9601C14.28 14.0584 13.9216 13.1935 13.2845 12.5556C12.6466 11.9185 11.7817 11.5601 10.88 11.5601C8.68088 11.5601 5.59912 11.5601 3.4 11.5601C2.49832 11.5601 1.63335 11.9185 0.995513 12.5556C0.358353 13.1935 0 14.0584 0 14.9601V17.0001C0 17.7515 0.6086 18.3601 1.36 18.3601H12.92C13.6714 18.3601 14.28 17.7515 14.28 17.0001V14.9601ZM12.92 17.0001H1.36C1.36 16.4779 1.36 15.719 1.36 14.9601C1.36 14.4188 1.57488 13.9 1.95772 13.5178C2.33988 13.135 2.85872 12.9201 3.4 12.9201H10.88C11.4213 12.9201 11.9401 13.135 12.3223 13.5178C12.7051 13.9 12.92 14.4188 12.92 14.9601V17.0001ZM7.14 1.36011C4.70084 1.36011 2.72 3.34095 2.72 5.78011C2.72 8.21927 4.70084 10.2001 7.14 10.2001C9.57916 10.2001 11.56 8.21927 11.56 5.78011C11.56 3.34095 9.57916 1.36011 7.14 1.36011ZM7.14 2.72011C8.82912 2.72011 10.2 4.09099 10.2 5.78011C10.2 7.46923 8.82912 8.84011 7.14 8.84011C5.45088 8.84011 4.08 7.46923 4.08 5.78011C4.08 4.09099 5.45088 2.72011 7.14 2.72011Z" fill="#558583"/>
<path fill-rule="evenodd" clip-rule="evenodd" d="M17 6.8V2.72C17 2.34464 16.6954 2.04 16.32 2.04C15.9447 2.04 15.64 2.34464 15.64 2.72V6.8C15.64 7.17536 15.9447 7.48 16.32 7.48C16.6954 7.48 17 7.17536 17 6.8ZM16.32 0C16.6954 0 17 0.30464 17 0.68C17 1.05536 16.6954 1.36 16.32 1.36C15.9447 1.36 15.64 1.05536 15.64 0.68C15.64 0.30464 15.9447 0 16.32 0Z" fill="#558583"/>
</svg>
