<svg width="19" height="12" viewBox="0 0 19 12" fill="none" xmlns="http://www.w3.org/2000/svg">
<path d="M1.07157 6.38439H17.7372C18.0918 6.38439 18.382 6.09421 18.382 5.73956C18.382 5.3849 18.0918 5.09473 17.7372 5.09473H1.07157C0.716917 5.09473 0.426744 5.3849 0.426744 5.73956C0.426744 6.09421 0.716917 6.38439 1.07157 6.38439Z" fill="white"/>
<path d="M5.35647 11.4203C5.50478 11.4203 5.65309 11.3687 5.77238 11.2655C6.04321 11.0334 6.07545 10.6271 5.84654 10.3563L1.91952 5.73933L5.84654 1.11913C6.07867 0.848302 6.04321 0.44206 5.77238 0.209921C5.50155 -0.0222171 5.09531 0.0132496 4.86317 0.284078L0.581505 5.32019C0.378384 5.56201 0.378384 5.91344 0.581505 6.15525L4.86317 11.1946C4.99214 11.3461 5.17269 11.4203 5.35647 11.4203Z" fill="white"/>
</svg>
