<svg width="17" height="15" viewBox="0 0 17 15" fill="none" xmlns="http://www.w3.org/2000/svg">
<path fill-rule="evenodd" clip-rule="evenodd" d="M0 5.98429C0 2.67921 2.67921 0 5.98429 0H11.0157C14.3208 0 17 2.67925 17 5.98429C17 6.01243 16.9998 6.03986 16.9996 6.06606L16.9996 6.0664C16.9903 7.02246 16.8166 7.84044 16.4427 8.58113C16.0709 9.31776 15.5231 9.9341 14.8308 10.5188C14.1436 11.0992 13.2901 11.6678 12.2879 12.2981C11.8722 12.5596 11.4369 12.828 10.9741 13.1135C10.2957 13.5318 9.55825 13.9865 8.73694 14.5091C8.52507 14.6439 8.25659 14.6526 8.03647 14.5317C7.81635 14.4109 7.67954 14.1797 7.67954 13.9286V12.6046C7.67954 12.2533 7.39481 11.9686 7.04354 11.9686H5.98429C2.6792 11.9686 0 9.28926 0 5.98429ZM5.98429 1.37611C3.43921 1.37611 1.37611 3.43921 1.37611 5.98429C1.37611 8.52927 3.43922 10.5925 5.98429 10.5925H7.04354C8.15481 10.5925 9.05565 11.4933 9.05565 12.6046V12.6827C9.48244 12.4167 9.89 12.1652 10.2748 11.9279C10.7365 11.6431 11.1654 11.3785 11.5553 11.1333C12.5523 10.5062 13.335 9.98088 13.9429 9.46748C14.5457 8.95841 14.9517 8.48114 15.2142 7.96106C15.4747 7.44502 15.6158 6.84316 15.6235 6.05299C15.6237 6.02919 15.6239 6.00649 15.6239 5.98429C15.6239 3.43924 13.5608 1.37611 11.0157 1.37611H5.98429Z" fill="#558583"/>
<path fill-rule="evenodd" clip-rule="evenodd" d="M5.29626 4.66022C5.29626 4.28022 5.60432 3.97217 5.98432 3.97217H11.0157C11.3957 3.97217 11.7038 4.28022 11.7038 4.66022C11.7038 5.04022 11.3957 5.34827 11.0157 5.34827H5.98432C5.60432 5.34827 5.29626 5.04022 5.29626 4.66022Z" fill="#558583"/>
<path fill-rule="evenodd" clip-rule="evenodd" d="M5.29626 7.30841C5.29626 6.92841 5.60432 6.62036 5.98432 6.62036H11.0157C11.3957 6.62036 11.7038 6.92841 11.7038 7.30841C11.7038 7.68841 11.3957 7.99647 11.0157 7.99647H5.98432C5.60432 7.99647 5.29626 7.68841 5.29626 7.30841Z" fill="#558583"/>
</svg>
