<svg width="222" height="86" viewBox="0 0 222 86" fill="none" xmlns="http://www.w3.org/2000/svg">
<path d="M69.1419 26.7567V7.46625H83.1401V10.9856H73.2699V15.8281H82.0816V19.1887H73.2699V26.7567H69.1419ZM91.444 26.9949C89.8034 26.9949 88.5509 26.5186 87.6865 25.5659C86.8221 24.6133 86.3899 23.2285 86.3899 21.4115V12.5733H90.2797V20.3795C90.2797 21.5085 90.4826 22.3729 90.8883 22.9727C91.3117 23.5549 92.0086 23.8459 92.9788 23.8459C93.9667 23.8459 94.7253 23.5108 95.2545 22.8404C95.8014 22.1524 96.0748 21.3409 96.0748 20.4059V12.5733H99.9647V26.7567H96.2336L96.0748 24.1635H95.8896C95.5544 25.0808 94.9811 25.7865 94.1696 26.2804C93.3757 26.7567 92.4672 26.9949 91.444 26.9949ZM104.222 26.7567V7.46625H108.112V26.7567H104.222ZM112.517 26.7567V7.46625H116.406V26.7567H112.517ZM133.192 27.0213C131.128 27.0213 129.531 26.5891 128.402 25.7247C127.291 24.8427 126.744 23.696 126.762 22.2847H130.572C130.59 23.0433 130.854 23.5901 131.366 23.9253C131.895 24.2429 132.539 24.4016 133.298 24.4016C134.091 24.4016 134.691 24.2693 135.097 24.0047C135.503 23.7225 135.706 23.3432 135.706 22.8669C135.706 22.2141 135.467 21.7908 134.991 21.5967C134.532 21.4027 133.8 21.2351 132.795 21.0939C131.754 20.9528 130.801 20.7499 129.937 20.4853C129.072 20.2031 128.384 19.7797 127.873 19.2152C127.379 18.6507 127.132 17.848 127.132 16.8072C127.132 15.3077 127.696 14.1875 128.826 13.4466C129.972 12.688 131.472 12.3087 133.324 12.3087C135.141 12.3087 136.588 12.7056 137.664 13.4995C138.74 14.2757 139.295 15.3694 139.331 16.7807H135.52C135.52 16.1809 135.309 15.7223 134.885 15.4047C134.479 15.0872 133.924 14.9284 133.218 14.9284C132.495 14.9284 131.948 15.0695 131.578 15.3518C131.207 15.6164 131.022 15.9692 131.022 16.4103C131.022 16.9395 131.26 17.3099 131.736 17.5216C132.213 17.7333 132.971 17.9097 134.012 18.0509C134.753 18.1567 135.459 18.289 136.129 18.4478C136.799 18.5889 137.39 18.8183 137.902 19.1358C138.431 19.4357 138.846 19.8591 139.146 20.4059C139.463 20.9352 139.622 21.632 139.622 22.4964C139.622 24.0488 139.048 25.1955 137.902 25.9364C136.755 26.6597 135.185 27.0213 133.192 27.0213ZM147.974 26.7567C147.022 26.7567 146.281 26.6156 145.751 26.3333C145.222 26.0511 144.852 25.6541 144.64 25.1426C144.446 24.6133 144.349 23.9959 144.349 23.2903V15.6958H141.809V12.5733H144.349V8.70994L148.212 8.33948V12.5733H151.07V15.6958H148.212V22.5493C148.212 22.9727 148.309 23.255 148.503 23.3961C148.697 23.5372 148.98 23.6078 149.35 23.6078H151.07V26.7567H147.974ZM158.985 26.9949C157.291 26.9949 155.924 26.3863 154.883 25.169C153.842 23.9341 153.322 22.0995 153.322 19.665C153.322 17.2129 153.842 15.3783 154.883 14.161C155.924 12.9261 157.291 12.3087 158.985 12.3087C160.078 12.3087 161.013 12.5557 161.79 13.0496C162.583 13.5436 163.148 14.2051 163.483 15.0343H163.695L163.854 12.5733H167.585V26.7567H163.695V24.2693H163.483C163.148 25.0808 162.583 25.7424 161.79 26.2539C161.013 26.7479 160.078 26.9949 158.985 26.9949ZM160.466 23.8459C161.19 23.8459 161.781 23.6784 162.239 23.3432C162.716 23.008 163.069 22.5758 163.298 22.0466C163.527 21.4997 163.642 20.9264 163.642 20.3266V18.977C163.642 18.3596 163.527 17.7863 163.298 17.257C163.069 16.7278 162.716 16.2956 162.239 15.9604C161.781 15.6252 161.19 15.4576 160.466 15.4576C159.514 15.4576 158.746 15.8016 158.164 16.4896C157.582 17.16 157.291 18.2185 157.291 19.665C157.291 21.0939 157.582 22.1524 158.164 22.8404C158.746 23.5108 159.514 23.8459 160.466 23.8459ZM177.983 26.9949C176.572 26.9949 175.337 26.695 174.279 26.0952C173.22 25.4777 172.4 24.6221 171.818 23.5284C171.236 22.417 170.945 21.1292 170.945 19.665C170.945 18.1832 171.236 16.8954 171.818 15.8016C172.418 14.6903 173.256 13.8347 174.332 13.2349C175.408 12.6174 176.669 12.3087 178.116 12.3087C179.333 12.3087 180.418 12.538 181.37 12.9967C182.323 13.4554 183.073 14.0905 183.62 14.9019C184.184 15.7134 184.493 16.6572 184.546 17.7333H180.735C180.612 16.9924 180.303 16.4367 179.809 16.0663C179.315 15.6781 178.716 15.4841 178.01 15.4841C176.987 15.4841 176.21 15.8634 175.681 16.6219C175.152 17.3805 174.887 18.3949 174.887 19.665C174.887 21.0587 175.17 22.0995 175.734 22.7875C176.316 23.4755 177.066 23.8195 177.983 23.8195C178.813 23.8195 179.465 23.6078 179.942 23.1844C180.436 22.761 180.718 22.2053 180.788 21.5173H184.572C184.519 22.6287 184.202 23.599 183.62 24.4281C183.055 25.2396 182.288 25.8747 181.318 26.3333C180.347 26.7744 179.236 26.9949 177.983 26.9949ZM188.019 26.7567V7.46625H191.962V18.4478L193.126 17.0983L197.333 12.5733H202.123L196.672 18.1832L202.229 26.7567H197.651L194.766 22.2583L193.92 20.7764L191.962 22.7081V26.7567H188.019Z" fill="black"/>
<path fill-rule="evenodd" clip-rule="evenodd" d="M29.1543 54.9471C29.1253 60.4454 33.1591 63.7232 39.5963 62.2329V47.6613C33.0778 45.6773 29.1815 49.6913 29.1543 54.9471ZM39.7932 26.5913H48.659V68.5342C40.1608 69.9228 32.0217 70.8035 26.199 67.5494C18.7018 63.3599 18.099 50.0464 24.0316 44.1168C27.0395 41.1107 33.095 38.9943 39.5963 40.3754V27.1822C39.5793 26.9026 39.5635 26.6242 39.7932 26.5913Z" fill="#103E2E"/>
<path fill-rule="evenodd" clip-rule="evenodd" d="M63.0413 35.8462H54.1755V26.5912H63.0413V35.8462Z" fill="#103E2E"/>
<path fill-rule="evenodd" clip-rule="evenodd" d="M169.431 62.6264C179.096 66.3804 180.165 45.3359 170.416 47.267C164.362 48.4663 164.556 60.7331 169.431 62.6264ZM169.825 39.9812C177.206 39.1925 182.774 42.4478 184.996 47.464C188.786 56.0227 184.787 65.8434 178.691 68.7309C175.532 70.2274 172.223 70.37 169.234 70.1092C159.996 69.3039 154.169 59.8936 157.413 49.433C157.921 47.7958 158.491 46.7943 158.792 46.2825C160.801 42.8698 164.191 40.5834 169.825 39.9812Z" fill="#103E2E"/>
<path fill-rule="evenodd" clip-rule="evenodd" d="M75.2566 59.2791C72.8044 63.398 78.9656 64.3848 82.94 63.2175V57.113C79.8862 57.5392 76.4102 57.3409 75.2566 59.2791ZM90.8208 68.9279C83.4972 69.349 72.3674 71.8424 68.3608 66.9589C66.007 64.0894 66.2601 58.6165 68.3608 55.9315C71.0755 52.4622 77.0016 51.7055 82.3491 51.2056C82.8345 50.0109 82.5072 48.067 81.955 47.267C77.0637 46.0217 72.2038 47.9513 68.7551 49.433V42.5413C73.9639 40.1493 86.0291 37.6307 89.6389 43.132C91.5347 46.0213 90.8208 51.0604 90.8208 55.5375V68.9279Z" fill="#103E2E"/>
<path fill-rule="evenodd" clip-rule="evenodd" d="M121.95 69.3219H113.084V57.9007C113.084 54.1402 113.693 49.372 111.705 47.858C110.148 46.6717 106.454 47.267 104.218 47.858V69.3219H95.3523V41.9506C104.415 39.5976 120.775 37.0748 121.95 48.4487C122.529 54.0564 121.521 62.4696 121.95 69.3219Z" fill="#103E2E"/>
<path fill-rule="evenodd" clip-rule="evenodd" d="M135.15 59.8698C136.642 62.2823 140.682 63.1869 144.016 61.642C143.833 57.0334 143.769 52.3059 143.819 47.4641C136.157 45.4408 131.59 54.1149 135.15 59.8698ZM157.413 41.163C156.624 43.525 155.469 45.521 154.458 47.6613C153.544 47.8659 152.752 47.2983 152.291 47.6613C152.088 57.26 154.336 70.2725 150.517 77.1982C148.218 81.368 143.985 84.0432 137.514 84.4842C132.8 84.8055 129.141 84.0356 125.693 82.712V74.4415C129.737 76.8016 139.957 78.7258 142.834 73.8506C143.68 72.4163 143.626 70.9338 144.016 68.7309C142.164 68.8282 140.365 69.6854 138.105 69.7156C128.814 69.8389 123.065 62.4443 125.299 52.1899C126.163 48.2234 128.488 45.0297 131.604 43.132C138.074 39.1904 148.02 39.4897 157.413 41.163Z" fill="#103E2E"/>
<path fill-rule="evenodd" clip-rule="evenodd" d="M63.0414 40.5326C63.0313 47.0577 63.0328 51.7465 63.0321 59.6737C62.6555 67.4639 62.7432 73.6675 59.8892 77.3951C59.3263 78.1302 58.1309 79.2025 57.1308 79.9552C56.2909 80.5871 54.6902 81.8686 53.7815 81.9244C52.8655 81.9806 50.5121 80.6534 49.447 80.152C48.0484 79.4936 46.7555 78.6194 45.3098 78.183C48.6821 76.0943 51.8834 74.5284 53.1903 70.3064C54.327 66.6346 54.1756 61.3138 54.1756 56.1285C54.1756 51.0083 54.1984 45.0556 54.1984 40.5349L63.0414 40.5326Z" fill="#103E2E"/>
</svg>
