<svg width="222" height="78" viewBox="0 0 222 78" fill="none" xmlns="http://www.w3.org/2000/svg">
<path fill-rule="evenodd" clip-rule="evenodd" d="M12.8554 37.9258C12.8171 45.2125 18.1601 49.5564 26.6865 47.5814V28.2703C18.0524 25.6408 12.8915 30.9605 12.8554 37.9258ZM26.9473 0.346924H38.6907V55.9322C27.4343 57.7725 16.6535 58.9397 8.94096 54.6272C-0.989595 49.075 -1.78794 31.4311 6.07013 23.5728C10.0543 19.5889 18.0751 16.7841 26.6865 18.6144V1.12999C26.664 0.759431 26.6432 0.390533 26.9473 0.346924Z" fill="black"/>
<path fill-rule="evenodd" clip-rule="evenodd" d="M57.741 12.6121H45.9977V0.346802H57.741V12.6121Z" fill="black"/>
<path fill-rule="evenodd" clip-rule="evenodd" d="M198.661 48.1031C211.463 53.0781 212.88 25.1886 199.966 27.7478C191.947 29.3372 192.204 45.5939 198.661 48.1031ZM199.183 18.0922C208.96 17.0469 216.335 21.3611 219.278 28.0089C224.298 39.3514 219.001 52.3664 210.927 56.1931C206.742 58.1764 202.36 58.3653 198.4 58.0197C186.163 56.9525 178.445 44.4814 182.743 30.6184C183.415 28.4486 184.171 27.1214 184.57 26.4431C187.23 21.9203 191.72 18.8903 199.183 18.0922Z" fill="black"/>
<path fill-rule="evenodd" clip-rule="evenodd" d="M73.921 43.6669C70.6729 49.1255 78.8337 50.4333 84.0982 48.8863V40.7963C80.0532 41.361 75.449 41.0983 73.921 43.6669ZM94.5368 56.4541C84.8362 57.0121 70.094 60.3166 64.7871 53.8446C61.6693 50.0419 62.0046 42.7888 64.7871 39.2305C68.3829 34.6327 76.2324 33.6299 83.3154 32.9674C83.9585 31.3841 83.5249 28.808 82.7935 27.7477C76.3146 26.0974 69.8774 28.6547 65.3093 30.6183V21.4849C72.2087 18.3149 88.1899 14.9771 92.9712 22.2677C95.4824 26.0969 94.5368 32.7749 94.5368 38.7082V56.4541Z" fill="black"/>
<path fill-rule="evenodd" clip-rule="evenodd" d="M135.769 56.9763H124.026V41.8402C124.026 36.8566 124.832 30.5374 122.199 28.531C120.136 26.9588 115.244 27.7477 112.283 28.531V56.9763H100.539V20.7021C112.544 17.5838 134.213 14.2404 135.769 29.3138C136.537 36.7454 135.201 47.8952 135.769 56.9763Z" fill="black"/>
<path fill-rule="evenodd" clip-rule="evenodd" d="M153.254 44.4497C155.23 47.6469 160.581 48.8458 164.997 46.7983C164.754 40.6908 164.67 34.4255 164.736 28.0088C154.587 25.3275 148.539 36.823 153.254 44.4497ZM182.743 19.6583C181.697 22.7886 180.168 25.4339 178.828 28.2702C177.618 28.5414 176.569 27.7891 175.957 28.2702C175.69 40.9911 178.667 58.2361 173.609 67.4144C170.563 72.9405 164.957 76.4858 156.385 77.0702C150.141 77.4961 145.295 76.4758 140.727 74.7216V63.7611C146.084 66.8889 159.621 69.4388 163.431 62.978C164.552 61.0772 164.481 59.1125 164.997 56.193C162.543 56.3219 160.162 57.458 157.168 57.498C144.861 57.6614 137.247 47.8616 140.205 34.2719C141.35 29.0152 144.43 24.7828 148.557 22.2677C157.127 17.0441 170.301 17.4408 182.743 19.6583Z" fill="black"/>
<path fill-rule="evenodd" clip-rule="evenodd" d="M57.7411 18.8228C57.7277 27.4703 57.7297 33.6841 57.7288 44.1897C57.23 54.5139 57.3461 62.7353 53.5658 67.6753C52.8202 68.6494 51.2369 70.0705 49.9122 71.068C48.7997 71.9055 46.6794 73.6039 45.4758 73.6778C44.2625 73.7523 41.1452 71.9933 39.7344 71.3289C37.8819 70.4564 36.1694 69.2978 34.2544 68.7194C38.7213 65.9514 42.9616 63.8761 44.6927 58.2808C46.1983 53.4147 45.9977 46.3633 45.9977 39.4914C45.9977 32.7058 46.028 24.8169 46.028 18.8258L57.7411 18.8228Z" fill="black"/>
</svg>
