<svg width="23" height="19" viewBox="0 0 23 19" fill="none" xmlns="http://www.w3.org/2000/svg">
<path d="M20.9549 18.4998C21.4699 18.4998 21.9161 18.3297 22.2954 17.994L15.8049 11.5032C15.6491 11.6147 15.4982 11.7232 15.3556 11.8263C14.8699 12.1841 14.4757 12.4634 14.173 12.6635C13.8703 12.864 13.4676 13.0685 12.9649 13.2772C12.4619 13.4862 11.9933 13.5903 11.5585 13.5903H11.5458H11.5331C11.0983 13.5903 10.6297 13.4862 10.1267 13.2772C9.62371 13.0685 9.22101 12.864 8.91863 12.6635C8.61596 12.4634 8.22195 12.1842 7.73598 11.8263C7.60055 11.727 7.45036 11.618 7.28798 11.5015L0.796204 17.994C1.17549 18.3297 1.62199 18.4998 2.13691 18.4998H20.9549Z" fill="white"/>
<path d="M1.38246 7.41607C0.896779 7.09227 0.466085 6.72143 0.0911255 6.30371V16.1789L5.81185 10.4582C4.66738 9.65917 3.19279 8.6463 1.38246 7.41607Z" fill="white"/>
<path d="M21.7216 7.41607C19.9803 8.59465 18.5004 9.60926 17.2816 10.4605L23 16.1791V6.30371C22.6334 6.71303 22.2073 7.08362 21.7216 7.41607Z" fill="white"/>
<path d="M20.9544 0.499512H2.13646C1.47995 0.499512 0.975224 0.721202 0.621643 1.16412C0.26777 1.60725 0.0911255 2.16144 0.0911255 2.82605C0.0911255 3.36289 0.325543 3.94457 0.79417 4.57125C1.2628 5.19768 1.76145 5.68972 2.28989 6.04763C2.57959 6.25231 3.4532 6.85964 4.91074 7.86944C5.69755 8.41468 6.3818 8.88992 6.9698 9.30002C7.47099 9.64924 7.90322 9.95166 8.26009 10.2026C8.30106 10.2314 8.36549 10.2775 8.451 10.3386C8.54313 10.4048 8.65972 10.4887 8.80354 10.5926C9.08051 10.7929 9.3106 10.9548 9.49386 11.0785C9.67687 11.2023 9.8986 11.3405 10.1587 11.494C10.4186 11.6472 10.6638 11.7625 10.8939 11.8391C11.124 11.9158 11.337 11.9542 11.533 11.9542H11.5458H11.5585C11.7544 11.9542 11.9675 11.9158 12.1977 11.8391C12.4277 11.7625 12.6727 11.6475 12.9328 11.494C13.1927 11.3405 13.4141 11.202 13.5977 11.0785C13.781 10.9548 14.0111 10.793 14.2881 10.5926C14.4316 10.4887 14.5482 10.4047 14.6403 10.3388C14.7259 10.2774 14.7903 10.2316 14.8315 10.2026C15.1095 10.0092 15.5427 9.70801 16.1252 9.30356C17.185 8.56716 18.7459 7.48329 20.8144 6.04763C21.4365 5.61311 21.9563 5.08874 22.374 4.47529C22.791 3.86184 23 3.21835 23 2.54505C23 1.98251 22.7973 1.50115 22.3929 1.10024C21.9879 0.699823 21.5084 0.499512 20.9544 0.499512Z" fill="white"/>
</svg>
