<svg width="29" height="28" viewBox="0 0 29 28" fill="none" xmlns="http://www.w3.org/2000/svg">
<path d="M14.2958 0C6.40177 0 0 6.42679 0 14.3548C0 20.6958 4.09627 26.0753 9.77958 27.9751C10.4945 28.1074 10.7554 27.6641 10.7554 27.2835C10.7554 26.9421 10.7429 26.0396 10.7357 24.8421C6.75921 25.7089 5.91922 22.9173 5.91922 22.9173C5.27046 21.2588 4.33218 20.8174 4.33218 20.8174C3.03289 19.9273 4.42869 19.9452 4.42869 19.9452C5.86382 20.0471 6.61802 21.425 6.61802 21.425C7.89408 23.6179 9.96545 22.9852 10.7804 22.6171C10.9091 21.6895 11.279 21.0568 11.6883 20.6976C8.51424 20.3348 5.17574 19.1034 5.17574 13.6042C5.17574 12.0368 5.73335 10.7554 6.6484 9.75099C6.50006 9.38818 6.01037 7.92804 6.7878 5.95318C6.7878 5.95318 7.9888 5.56714 10.7197 7.42405C11.8599 7.10592 13.0823 6.94686 14.2994 6.9415C15.5129 6.94865 16.7372 7.10592 17.8792 7.42583C20.6082 5.56893 21.8075 5.95496 21.8075 5.95496C22.5867 7.93161 22.097 9.38997 21.9504 9.75277C22.8673 10.7572 23.4195 12.0386 23.4195 13.606C23.4195 19.1195 20.0774 20.333 16.8927 20.6887C17.4056 21.1319 17.8631 22.0076 17.8631 23.3462C17.8631 25.2657 17.8452 26.8134 17.8452 27.2835C17.8452 27.6677 18.1026 28.1145 18.8282 27.9733C24.5026 26.0717 28.5953 20.694 28.5953 14.3548C28.5953 6.42679 22.1935 0 14.2958 0Z" fill="white"/>
</svg>
