<svg width="130" height="84" viewBox="0 0 130 84" fill="none" xmlns="http://www.w3.org/2000/svg">
<path d="M30.3411 83.5539L6.2391 76.863L0.868073 16.6206H59.8864L54.5097 76.8535L30.3411 83.5539Z" fill="#264DE4"/>
<path d="M49.9066 73.0182L54.5014 21.5464H30.3772V78.4325L49.9066 73.0182Z" fill="#2965F1"/>
<path d="M13.181 43.8894L13.8432 51.2778H30.3772V43.8894H13.181Z" fill="#EBEBEB"/>
<path d="M11.8504 28.9348L12.5221 36.3234H30.3773V28.9348H30.3517H11.8504Z" fill="#EBEBEB"/>
<path d="M30.3772 63.0781L30.3449 63.0867L22.1163 60.8648L21.5902 54.9722H17.5918H14.1734L15.2085 66.5731L30.3432 70.7747L30.3772 70.7652V63.0781Z" fill="#EBEBEB"/>
<path d="M14.7576 0.249451H23.7064V3.99165H18.4998V7.73384H23.7064V11.476H14.7576V0.249451Z" fill="black"/>
<path d="M25.4961 0.249451H34.4448V3.50354H29.2383V4.15435H34.4448V11.6387H25.4961V8.22196H30.7027V7.57114H25.4961V0.249451Z" fill="black"/>
<path d="M36.2346 0.249451H45.1833V3.50354H39.9768V4.15435H45.1833V11.6387H36.2346V8.22196H41.4411V7.57114H36.2346V0.249451Z" fill="black"/>
<path d="M47.5261 43.8893L48.86 28.9348H30.3517V36.3234H40.7628L40.0905 43.8893H30.3517V51.2777H39.4498L38.5922 60.86L30.3517 63.0842V70.771L45.4985 66.573L45.6096 65.3248L47.3458 45.8733L47.5261 43.8893Z" fill="white"/>
<path d="M130 16.6208L124.623 76.8537L100.455 83.5541L76.3527 76.8632L70.9816 16.6208H130Z" fill="#E44D26"/>
<path d="M100.491 78.4326L120.02 73.0182L124.615 21.5464H100.491V78.4326Z" fill="#F16529"/>
<path d="M90.0387 36.3236H100.491V28.935H100.465H81.964L82.1409 30.9172L83.9568 51.2779H100.491V43.8895H90.7139L90.0387 36.3236Z" fill="#EBEBEB"/>
<path d="M91.7038 54.9722H87.7053H84.2869L85.3221 66.5732L100.457 70.7747L100.491 70.7653V63.0782L100.458 63.0868L92.2298 60.8649L91.7038 54.9722Z" fill="#EBEBEB"/>
<path d="M76.4727 0.249512H80.2275V3.95917H83.6621V0.249512H87.417V11.4833H83.6623V7.72154H80.2276V11.4833H76.4729L76.4727 0.249512Z" fill="black"/>
<path d="M92.3546 3.97479H89.0491V0.249512H99.4166V3.97479H96.1097V11.4833H92.3548L92.3546 3.97479Z" fill="black"/>
<path d="M101.062 0.249512H104.977L107.386 4.19672L109.791 0.249512H113.708V11.4833H109.969V5.9152L107.386 9.90942H107.321L104.736 5.9152V11.4833H101.062V0.249512Z" fill="black"/>
<path d="M115.577 0.249512H119.333V7.77003H124.613V11.4833H115.577V0.249512Z" fill="black"/>
<path d="M100.465 51.2779H109.563L108.706 60.8602L100.465 63.0843V70.7711L115.612 66.5732L115.723 65.3249L117.459 45.8735L117.64 43.8895H115.649H100.465V51.2779Z" fill="white"/>
<path d="M100.465 36.3055V36.3236H118.288H118.312L118.46 34.6628L118.797 30.9172L118.974 28.935H100.465V33.5239V36.3055Z" fill="white"/>
</svg>
