<svg width="304" height="71" viewBox="0 0 304 71" fill="none" xmlns="http://www.w3.org/2000/svg">
<path opacity="0.85" d="M247.473 18.882C250.195 18.8431 252.937 18.8042 255.679 18.7848C255.718 20.3015 255.776 23.3155 255.815 24.8322C253.015 24.8322 250.215 24.8128 247.434 24.8128C247.434 23.335 247.473 20.3793 247.473 18.882Z" fill="#101010"/>
<path d="M81.3533 20.1266C86.3507 20.1655 91.3676 20.1849 96.4039 20.2044C95.9761 29.1491 97.7261 38.4439 95.1982 47.1553C91.9314 53.4166 83.8033 52.1916 77.9504 52.3083C77.717 50.3249 77.4837 48.3415 77.2698 46.3581C80.6338 46.0858 84.2895 46.747 87.3812 45.0164C89.3841 38.8134 88.4896 32.1826 87.9841 25.8046C86.2729 25.8434 82.87 25.8823 81.1588 25.9018C81.2171 24.4628 81.2949 21.5655 81.3533 20.1266Z" fill="#131313"/>
<path d="M181.476 22.5765C187.368 18.0264 195.107 19.8931 201.66 21.6626C201.641 23.3932 201.621 26.8545 201.621 28.5851C196.546 26.5434 186.901 22.0904 185.618 30.4907C190.421 31.9491 195.496 32.8047 199.852 35.4103C204.48 39.1827 203.177 47.758 197.849 50.3442C191.782 53.9415 184.587 51.9776 178.19 50.6748C177.821 48.0108 177.451 45.3662 177.121 42.7023C182.507 45.0746 193.416 50.6942 195.03 41.6133C189.624 39.5716 182.896 39.2799 178.968 34.6131C177.237 30.6463 177.529 25.1239 181.476 22.5765Z" fill="#131313"/>
<path d="M288.988 21.2349C291.264 21.2349 293.558 21.2349 295.872 21.2349C295.93 23.4322 296.008 25.6295 296.105 27.8268C297.855 27.8462 301.375 27.8851 303.144 27.9046C303.183 29.2463 303.242 31.9103 303.281 33.2325C301.492 33.2131 297.914 33.1742 296.125 33.1353C296.222 37.5882 295.075 42.4495 297.311 46.5524C298.983 46.7274 302.328 47.058 304 47.233C303.825 55.4194 294.491 51.7054 289.552 50.422C289.105 45.4246 288.891 40.4272 288.891 35.4104C287.627 33.6409 286.363 31.8519 285.119 30.0824C286.072 29.2074 287.977 27.4573 288.93 26.5823C288.949 25.2406 288.969 22.5571 288.988 21.2349Z" fill="#131313"/>
<path d="M102.471 28.0795C108.81 27.749 117.677 25.3961 121.663 31.9491C123.083 38.4438 122.188 45.1912 122.402 51.8026C119.563 51.5498 116.724 51.2776 113.904 51.0248C110.677 51.297 106.885 53.6888 103.91 51.5498C98.9705 49.1775 98.8928 40.4272 104.085 38.3077C107.857 36.7521 111.979 36.4798 115.927 35.5465C112.174 31.6574 106.846 33.1353 102.121 33.6408C102.218 32.2408 102.393 29.4601 102.471 28.0795ZM108.654 41.4383C108.44 43.3245 108.246 45.2107 108.071 47.1163C110.229 46.9997 112.388 46.9024 114.566 46.7857C114.721 44.744 114.896 42.7023 115.071 40.6605C112.913 40.9133 110.774 41.1855 108.654 41.4383Z" fill="#131313"/>
<path d="M125.299 27.399C127.166 27.7685 130.919 28.5074 132.786 28.8769C134.75 33.3881 136.091 38.1328 137.997 42.6829C139.591 37.8216 141.069 32.902 142.508 27.9824C144.375 27.9435 148.128 27.8852 149.995 27.8463C147.35 36.1882 144.394 44.433 141.089 52.5611C138.522 52.2305 135.994 51.686 133.544 50.9665C130.005 43.4218 127.672 35.3716 125.299 27.399Z" fill="#131313"/>
<path d="M152.406 33.602C152.95 31.7547 153.573 29.9074 154.253 28.099C160.281 27.224 168.448 25.9406 172.59 31.5797C174.009 38.3077 173.134 45.2691 173.27 52.0943C170.412 51.7054 167.573 51.3165 164.734 50.9276C159.639 53.6305 151.142 52.6582 151.259 45.483C150.286 36.966 160.923 36.8493 166.698 35.7215C163.217 31.0547 157.189 33.5242 152.406 33.602ZM159.445 41.6134C159.231 43.3634 159.037 45.1329 158.842 46.883C160.981 46.9413 163.12 46.9997 165.278 47.0386C165.473 44.8802 165.667 42.7412 165.862 40.5828C163.723 40.9133 161.584 41.2634 159.445 41.6134Z" fill="#131313"/>
<path d="M204.422 39.9605C203.819 29.3824 217.275 23.8405 225.325 29.4796C225.52 30.9769 225.889 33.9909 226.064 35.4882C222.369 34.3215 218.578 31.6769 214.611 33.4659C210.411 37.4716 211.286 47.6414 218.403 47.0386C220.367 46.4163 224.275 45.1718 226.239 44.5496C225.889 46.2219 225.208 49.5664 224.878 51.2193C216.458 55.1861 203.76 50.4998 204.422 39.9605Z" fill="#131313"/>
<path d="M229.292 27.3213C232.209 28.0991 235.184 28.8769 238.12 29.713C240.317 28.9158 242.534 28.138 244.77 27.3407C244.867 29.2075 245.101 32.9409 245.217 34.8077C242.417 34.9438 239.617 35.0799 236.856 35.216C236.662 40.7968 236.603 46.3581 236.564 51.9388C234.737 51.9583 231.061 51.9777 229.234 51.9972C229.136 43.7719 229.117 35.5466 229.292 27.3213Z" fill="#131313"/>
<path d="M260.91 27.8464C266.277 29.052 271.682 28.6825 277.03 27.613C285.411 29.3437 285.605 41.2246 282.416 47.4471C279.771 52.8139 273.296 52.3083 268.299 52.0361C268.338 54.8751 268.377 57.6947 268.415 60.5337C266.549 60.5142 262.776 60.4753 260.89 60.4364C260.89 49.586 260.871 38.7162 260.91 27.8464ZM268.493 33.5632C268.416 38.094 268.377 42.6441 268.415 47.1748C270.827 46.5137 273.938 46.9804 275.766 44.8998C277.127 41.2052 276.057 37.2189 275.785 33.4077C273.355 33.4466 270.924 33.5049 268.493 33.5632Z" fill="#131313"/>
<path d="M248.173 27.9048C249.904 27.9048 253.365 27.9048 255.076 27.9048C255.193 35.9356 255.193 43.947 255.076 51.9779C253.346 51.9779 249.904 51.9779 248.173 51.9779C248.037 43.9665 248.037 35.9356 248.173 27.9048Z" fill="#131313"/>
<path d="M-0.00744629 1.10395C6.85459 0.814882 13.7304 1.18655 20.5993 1.06954C28.1771 0.828648 35.7481 1.02825 43.3328 1.05578C49.3483 1.06954 55.3637 1.02824 61.3792 1.07642C59.4865 21.9516 57.58 42.8268 55.8249 63.7157C47.7653 66.0077 39.6988 68.2652 31.6391 70.5434C30.6067 70.9701 29.5468 70.5709 28.5557 70.3025C20.8953 68.1 13.2348 65.9182 5.56064 63.7983C3.56466 42.9163 1.68569 22.0135 -0.00744629 1.10395ZM30.8132 6.54816C30.531 16.8447 30.7719 27.1411 30.6893 37.4376C30.765 46.8532 30.5517 56.2755 30.7995 65.6911C37.572 64.0943 44.2551 62.1327 50.9382 60.1987C52.6175 42.3243 54.2556 24.45 55.6597 6.55504C47.3798 6.47245 39.0931 6.56881 30.8132 6.54816ZM22.1961 46.7568C18.2179 45.6693 14.2879 44.4167 10.2546 43.5564C10.1376 45.9515 10.1789 48.3467 10.4542 50.7281C16.3596 52.1666 22.141 54.0593 28.0532 55.4703C28.0945 41.8357 28.0326 28.1942 28.0808 14.5596C26.1536 14.5114 24.2265 14.4839 22.2993 14.4426C22.0791 25.2071 22.2856 35.9854 22.1961 46.7568Z" fill="#D6BA32"/>
<path d="M30.8132 6.54815C39.093 6.5688 47.3798 6.47244 55.6597 6.55503C54.2556 24.45 52.6175 42.3243 50.9381 60.1987C44.2551 62.1327 37.572 64.0943 30.7994 65.6911C30.5516 56.2755 30.765 46.8531 30.6893 37.4376C30.7719 27.1411 30.531 16.8446 30.8132 6.54815ZM33.1326 14.5527C33.1602 23.4176 33.1671 32.2894 33.1326 41.1543C37.1797 40.5004 41.2129 39.7502 45.2462 39.0138C45.1842 41.0786 45.1016 43.1434 45.0122 45.2082C41.0821 46.2544 37.159 47.3349 33.2084 48.3054C33.1464 50.6868 33.1395 53.0682 33.1602 55.4565C38.1364 54.3415 43.0368 52.9374 47.9786 51.6917C48.598 51.4026 49.7887 51.437 49.7337 50.4666C50.3325 44.0932 50.7041 37.6923 51.2823 31.3052C47.1871 31.6424 43.1332 32.3307 39.038 32.6129C39.0036 28.9926 38.9967 25.3723 39.0518 21.752C43.3603 21.752 47.662 21.752 51.9705 21.7589C52.2458 19.3431 52.4868 16.9204 52.6726 14.4977C46.1616 14.5252 39.6437 14.4357 33.1326 14.5527Z" fill="#FFDA3E"/>
<path d="M22.196 46.7567C22.2855 35.9853 22.079 25.207 22.2993 14.4425C24.2264 14.4838 26.1536 14.5113 28.0807 14.5595C28.0326 28.1941 28.0945 41.8356 28.0532 55.4702C22.141 54.0592 16.3595 52.1665 10.4542 50.728C10.1789 48.3466 10.1376 45.9514 10.2546 43.5563C14.2878 44.4166 18.2178 45.6692 22.196 46.7567Z" fill="#EBEBEB"/>
</svg>
