<svg width="28" height="28" viewBox="0 0 28 28" fill="none" xmlns="http://www.w3.org/2000/svg">
<path d="M14 0C11.2311 0 8.52431 0.821085 6.22202 2.35942C3.91973 3.89776 2.12532 6.08426 1.06569 8.64243C0.00606594 11.2006 -0.271181 14.0155 0.269012 16.7313C0.809205 19.447 2.14258 21.9416 4.10051 23.8995C6.05844 25.8574 8.553 27.1908 11.2687 27.731C13.9845 28.2712 16.7994 27.9939 19.3576 26.9343C21.9157 25.8747 24.1022 24.0803 25.6406 21.778C27.1789 19.4757 28 16.7689 28 14C28 10.287 26.525 6.72601 23.8995 4.1005C21.274 1.475 17.713 0 14 0ZM9.92895 21.3684H6.87474V11.5297H9.92895V21.3684ZM8.4 10.1868C8.0485 10.1883 7.70446 10.0855 7.41137 9.89147C7.11828 9.69743 6.88929 9.42086 6.75335 9.09671C6.61741 8.77256 6.58062 8.41538 6.64763 8.07032C6.71464 7.72527 6.88245 7.40783 7.12984 7.15812C7.37723 6.90841 7.69309 6.73766 8.03751 6.66743C8.38192 6.5972 8.73943 6.63066 9.06483 6.76358C9.39024 6.89649 9.66893 7.12289 9.86569 7.41416C10.0625 7.70543 10.1684 8.0485 10.1703 8.4C10.1713 8.87133 9.98559 9.32389 9.65386 9.65872C9.32213 9.99356 8.87133 10.1834 8.4 10.1868ZM21.3684 21.3684H18.3161V16.5789C18.3161 15.4368 18.2939 13.9724 16.7282 13.9724C15.1624 13.9724 14.8861 15.2139 14.8861 16.496V21.3684H11.8447V11.5297H14.7755V12.8708H14.8179C15.225 12.0971 16.2216 11.281 17.7082 11.281C20.7992 11.281 21.3684 13.3184 21.3684 15.9637V21.3684Z" fill="white"/>
</svg>
