<svg width="351" height="73" viewBox="0 0 351 73" fill="none" xmlns="http://www.w3.org/2000/svg">
<path d="M99.0202 50.515V20.5219H111.857C115.121 20.5219 117.726 21.3859 119.674 23.1139C121.621 24.8144 122.595 27.2282 122.595 30.355C122.595 32.3299 122.17 34.0716 121.32 35.5802C120.469 37.0613 119.249 38.227 117.658 39.0773C116.067 39.9002 114.133 40.3116 111.857 40.3116L105.438 40.2704V50.515H99.0202ZM110.787 25.9527H105.438V35.2922L110.787 35.3333C111.747 35.3333 112.625 35.1962 113.42 34.9219C114.216 34.6202 114.86 34.1264 115.354 33.4407C115.848 32.7276 116.094 31.7813 116.094 30.6019C116.094 29.4224 115.848 28.5036 115.354 27.8453C114.86 27.1596 114.216 26.6796 113.42 26.4053C112.625 26.1036 111.747 25.9527 110.787 25.9527ZM127.771 50.515V20.5219H133.819V32.4533H134.066C134.669 30.9996 135.602 29.9024 136.864 29.1619C138.125 28.4213 139.538 28.051 141.101 28.051C142.582 28.051 143.899 28.3527 145.051 28.9562C146.23 29.5596 147.163 30.5333 147.849 31.8773C148.534 33.1939 148.877 34.963 148.877 37.1847V50.515H142.829V38.5013C142.829 36.6362 142.5 35.251 141.842 34.3459C141.184 33.4407 140.128 32.9882 138.674 32.9882C137.11 32.9882 135.904 33.523 135.053 34.5927C134.23 35.635 133.819 36.8556 133.819 38.2544V50.515H127.771ZM165.243 50.8853C163.049 50.8853 161.115 50.4327 159.442 49.5276C157.769 48.6224 156.466 47.3196 155.534 45.619C154.629 43.9184 154.176 41.875 154.176 39.4887C154.176 37.2122 154.615 35.2236 155.493 33.523C156.37 31.795 157.632 30.451 159.278 29.491C160.923 28.531 162.912 28.051 165.243 28.051C167.438 28.051 169.358 28.5036 171.003 29.4087C172.677 30.3139 173.966 31.6304 174.871 33.3584C175.803 35.059 176.27 37.1024 176.27 39.4887C176.27 41.7653 175.831 43.7676 174.953 45.4956C174.075 47.1962 172.814 48.5264 171.168 49.4864C169.55 50.419 167.575 50.8853 165.243 50.8853ZM165.202 45.9893C166.683 45.9893 167.877 45.4544 168.782 44.3847C169.687 43.315 170.139 41.683 170.139 39.4887C170.139 37.2944 169.701 35.6624 168.823 34.5927C167.945 33.523 166.752 32.9882 165.243 32.9882C163.735 32.9882 162.528 33.523 161.623 34.5927C160.718 35.6624 160.265 37.2944 160.265 39.4887C160.265 41.6556 160.704 43.2876 161.582 44.3847C162.487 45.4544 163.694 45.9893 165.202 45.9893ZM189.05 50.515C187.569 50.515 186.417 50.2956 185.594 49.8567C184.771 49.4179 184.195 48.8007 183.866 48.0053C183.564 47.1824 183.413 46.2224 183.413 45.1253V33.3173H179.464V28.4624H183.413V22.4556L189.42 21.8796V28.4624H193.864V33.3173H189.42V43.9733C189.42 44.6316 189.571 45.0704 189.873 45.2899C190.175 45.5093 190.613 45.619 191.189 45.619H193.864V50.515H189.05ZM208.432 50.8853C206.238 50.8853 204.304 50.4327 202.631 49.5276C200.958 48.6224 199.655 47.3196 198.722 45.619C197.817 43.9184 197.365 41.875 197.365 39.4887C197.365 37.2122 197.804 35.2236 198.681 33.523C199.559 31.795 200.821 30.451 202.466 29.491C204.112 28.531 206.101 28.051 208.432 28.051C210.626 28.051 212.546 28.5036 214.192 29.4087C215.865 30.3139 217.154 31.6304 218.06 33.3584C218.992 35.059 219.458 37.1024 219.458 39.4887C219.458 41.7653 219.02 43.7676 218.142 45.4956C217.264 47.1962 216.002 48.5264 214.357 49.4864C212.738 50.419 210.764 50.8853 208.432 50.8853ZM208.391 45.9893C209.872 45.9893 211.065 45.4544 211.97 44.3847C212.876 43.315 213.328 41.683 213.328 39.4887C213.328 37.2944 212.889 35.6624 212.012 34.5927C211.134 33.523 209.941 32.9882 208.432 32.9882C206.924 32.9882 205.717 33.523 204.812 34.5927C203.906 35.6624 203.454 37.2944 203.454 39.4887C203.454 41.6556 203.893 43.2876 204.77 44.3847C205.676 45.4544 206.882 45.9893 208.391 45.9893ZM233.802 50.9264C230.593 50.9264 228.111 50.2544 226.355 48.9104C224.627 47.539 223.777 45.7562 223.805 43.5619H229.729C229.757 44.7413 230.168 45.5916 230.963 46.1127C231.786 46.6064 232.787 46.8533 233.967 46.8533C235.201 46.8533 236.134 46.6476 236.765 46.2362C237.395 45.7973 237.711 45.2076 237.711 44.467C237.711 43.4522 237.341 42.7939 236.6 42.4922C235.887 42.1904 234.749 41.9299 233.185 41.7104C231.567 41.491 230.086 41.1756 228.742 40.7642C227.398 40.3253 226.328 39.667 225.533 38.7893C224.765 37.9116 224.381 36.6636 224.381 35.0453C224.381 32.7139 225.258 30.9722 227.014 29.8202C228.797 28.6407 231.128 28.051 234.008 28.051C236.833 28.051 239.082 28.6682 240.755 29.9024C242.429 31.1093 243.293 32.8099 243.347 35.0042H237.423C237.423 34.0716 237.094 33.3584 236.435 32.8647C235.805 32.371 234.941 32.1242 233.843 32.1242C232.719 32.1242 231.869 32.3436 231.293 32.7824C230.717 33.1939 230.429 33.7424 230.429 34.4282C230.429 35.251 230.799 35.827 231.539 36.1562C232.28 36.4853 233.459 36.7596 235.078 36.979C236.23 37.1436 237.327 37.3493 238.369 37.5962C239.411 37.8156 240.33 38.1722 241.126 38.6659C241.949 39.1322 242.593 39.7904 243.059 40.6407C243.553 41.4636 243.8 42.547 243.8 43.891C243.8 46.3047 242.909 48.0876 241.126 49.2396C239.343 50.3642 236.902 50.9264 233.802 50.9264ZM249.504 50.515V20.5219H255.552V32.4533H255.799C256.402 30.9996 257.335 29.9024 258.597 29.1619C259.858 28.4213 261.271 28.051 262.834 28.051C264.315 28.051 265.632 28.3527 266.784 28.9562C267.963 29.5596 268.896 30.5333 269.582 31.8773C270.267 33.1939 270.61 34.963 270.61 37.1847V50.515H264.562V38.5013C264.562 36.6362 264.233 35.251 263.575 34.3459C262.917 33.4407 261.861 32.9882 260.407 32.9882C258.843 32.9882 257.637 33.523 256.786 34.5927C255.963 35.635 255.552 36.8556 255.552 38.2544V50.515H249.504ZM286.976 50.8853C284.782 50.8853 282.848 50.4327 281.175 49.5276C279.502 48.6224 278.199 47.3196 277.267 45.619C276.362 43.9184 275.909 41.875 275.909 39.4887C275.909 37.2122 276.348 35.2236 277.226 33.523C278.103 31.795 279.365 30.451 281.011 29.491C282.656 28.531 284.645 28.051 286.976 28.051C289.171 28.051 291.091 28.5036 292.736 29.4087C294.41 30.3139 295.699 31.6304 296.604 33.3584C297.536 35.059 298.003 37.1024 298.003 39.4887C298.003 41.7653 297.564 43.7676 296.686 45.4956C295.808 47.1962 294.547 48.5264 292.901 49.4864C291.283 50.419 289.308 50.8853 286.976 50.8853ZM286.935 45.9893C288.416 45.9893 289.61 45.4544 290.515 44.3847C291.42 43.315 291.872 41.683 291.872 39.4887C291.872 37.2944 291.434 35.6624 290.556 34.5927C289.678 33.523 288.485 32.9882 286.976 32.9882C285.468 32.9882 284.261 33.523 283.356 34.5927C282.451 35.6624 281.998 37.2944 281.998 39.4887C281.998 41.6556 282.437 43.2876 283.315 44.3847C284.22 45.4544 285.427 45.9893 286.935 45.9893ZM303.501 57.3859V28.4624H309.343L309.549 32.2887H309.878C310.399 30.9996 311.263 29.971 312.47 29.203C313.704 28.435 315.172 28.051 316.872 28.051C319.505 28.051 321.631 29.011 323.249 30.931C324.895 32.8236 325.718 35.6762 325.718 39.4887C325.718 43.2739 324.895 46.1264 323.249 48.0464C321.631 49.9664 319.505 50.9264 316.872 50.9264C315.172 50.9264 313.704 50.5424 312.47 49.7744C311.263 48.979 310.399 47.9504 309.878 46.6887H309.549V57.3859H303.501ZM314.609 46.0304C316.091 46.0304 317.27 45.5093 318.148 44.467C319.053 43.3973 319.505 41.7379 319.505 39.4887C319.505 37.2396 319.053 35.5939 318.148 34.5516C317.27 33.4819 316.091 32.947 314.609 32.947C313.485 32.947 312.552 33.2076 311.812 33.7287C311.071 34.2499 310.523 34.9356 310.166 35.7859C309.809 36.6087 309.631 37.4864 309.631 38.419V40.5584C309.631 41.491 309.809 42.3824 310.166 43.2327C310.523 44.0556 311.071 44.7276 311.812 45.2487C312.552 45.7699 313.485 46.0304 314.609 46.0304Z" fill="black"/>
<g clip-path="url(#clip0_1_126)">
<path d="M13.4108 0.657837H61.0179C68.2358 0.657837 74.0715 6.50399 74.0715 13.7348V59.5809C74.0715 66.8117 68.2358 72.6578 61.0179 72.6578H13.4108C6.19292 72.6578 0.357208 66.8117 0.357208 59.5809V13.7348C0.357208 6.50399 6.19292 0.657837 13.4108 0.657837Z" fill="#001E36"/>
<path d="M16.9429 51.1502V19.4887C16.9429 19.2733 17.0351 19.1502 17.2501 19.1502C17.7722 19.1502 18.2636 19.1502 18.9701 19.1194C19.7072 19.0887 20.4751 19.0887 21.3044 19.0579C22.1336 19.0271 23.0244 19.0271 23.9765 18.9963C24.9286 18.9656 25.8501 18.9656 26.7715 18.9656C29.2901 18.9656 31.3786 19.2733 33.0986 19.9194C34.6344 20.4425 36.0472 21.304 37.2144 22.4425C38.1972 23.4271 38.9651 24.6271 39.4565 25.9502C39.9172 27.2425 40.1629 28.5656 40.1629 29.9502C40.1629 32.5963 39.5486 34.781 38.3201 36.504C37.0915 38.2271 35.3715 39.5194 33.3751 40.2579C31.2865 41.0271 28.9829 41.304 26.4644 41.304C25.7272 41.304 25.2358 41.304 24.9286 41.2733C24.6215 41.2425 24.1915 41.2425 23.6079 41.2425V51.1194C23.6386 51.3348 23.4851 51.5194 23.2701 51.5502C23.2394 51.5502 23.2086 51.5502 23.1472 51.5502H17.3115C17.0658 51.5502 16.9429 51.4271 16.9429 51.1502ZM23.6386 25.0887V35.4271C24.0686 35.4579 24.4679 35.4887 24.8365 35.4887H26.4644C27.6622 35.4887 28.8601 35.304 29.9965 34.9348C30.9794 34.6579 31.8394 34.0733 32.5151 33.304C33.1601 32.5348 33.4672 31.4887 33.4672 30.1348C33.4979 29.181 33.2522 28.2271 32.7608 27.3963C32.2386 26.5963 31.5015 25.981 30.6108 25.6425C29.4744 25.181 28.2458 24.9963 26.9865 25.0271C26.1879 25.0271 25.4815 25.0271 24.8979 25.0579C24.2836 25.0271 23.8536 25.0579 23.6386 25.0887Z" fill="#31A8FF"/>
<path d="M59.3286 33.5502C58.4072 33.0579 57.4243 32.7194 56.3801 32.5041C55.2436 32.2579 54.1072 32.1041 52.9401 32.1041C52.3258 32.0733 51.6808 32.1656 51.0972 32.3195C50.6979 32.4118 50.3601 32.6271 50.1451 32.9348C49.9915 33.181 49.8993 33.4887 49.8993 33.7656C49.8993 34.0425 50.0222 34.3194 50.2065 34.5656C50.4829 34.9041 50.8515 35.181 51.2508 35.3964C51.9572 35.7656 52.6943 36.1041 53.4315 36.4118C55.0901 36.9656 56.6872 37.7348 58.1615 38.6579C59.1751 39.3041 60.0043 40.1656 60.5879 41.2118C61.0793 42.1964 61.3251 43.2733 61.2943 44.381C61.3251 45.8271 60.8951 47.2733 60.0965 48.4733C59.2365 49.7041 58.0386 50.6579 56.6565 51.2118C55.1515 51.8579 53.3086 52.1964 51.0972 52.1964C49.6843 52.1964 48.3022 52.0733 46.9201 51.7964C45.8451 51.6118 44.7701 51.2733 43.7872 50.8118C43.5722 50.6887 43.4186 50.4733 43.4493 50.2271V44.8733C43.4493 44.781 43.4801 44.6579 43.5722 44.5964C43.6643 44.5348 43.7565 44.5656 43.8486 44.6271C45.0465 45.3348 46.3058 45.8271 47.6572 46.1348C48.8243 46.4425 50.0529 46.5964 51.2815 46.5964C52.4486 46.5964 53.2779 46.4425 53.8308 46.1656C54.3222 45.9502 54.6601 45.4271 54.6601 44.8733C54.6601 44.4425 54.4143 44.0425 53.9229 43.6425C53.4315 43.2425 52.4179 42.781 50.9129 42.1964C49.3465 41.6425 47.9029 40.9041 46.5515 39.981C45.5993 39.3041 44.8008 38.4118 44.2172 37.3656C43.7258 36.381 43.4801 35.3041 43.5108 34.2271C43.5108 32.9041 43.8793 31.6425 44.5551 30.5041C45.3229 29.2733 46.4593 28.2887 47.7801 27.6733C49.2236 26.9348 51.0358 26.5964 53.2165 26.5964C54.4758 26.5964 55.7658 26.6887 57.0251 26.8733C57.9465 26.9964 58.8372 27.2425 59.6665 27.581C59.7893 27.6118 59.9122 27.7348 59.9736 27.8579C60.0043 27.981 60.0351 28.1041 60.0351 28.2271V33.2425C60.0351 33.3656 59.9736 33.4887 59.8815 33.5502C59.6051 33.6118 59.4515 33.6118 59.3286 33.5502Z" fill="#31A8FF"/>
</g>
<defs>
<clipPath id="clip0_1_126">
<rect width="73.7143" height="72" fill="white" transform="translate(0.357208 0.657837)"/>
</clipPath>
</defs>
</svg>
