<svg width="18" height="15" viewBox="0 0 18 15" fill="none" xmlns="http://www.w3.org/2000/svg">
<path fill-rule="evenodd" clip-rule="evenodd" d="M7.85287 13.434L1.80502 10.8585C1.5759 10.763 1.41702 10.5375 1.41702 10.2766C1.41702 10.0157 1.57589 9.79015 1.80501 9.69468L1.8101 9.69256L7.85291 7.11925C8.08384 7.0234 8.33725 6.97021 8.60447 6.97021C8.87169 6.97021 9.12509 7.02339 9.35603 7.11925C9.35683 7.11958 9.35763 7.11991 9.35842 7.12025L15.4039 9.6947C15.633 9.79017 15.7919 10.0157 15.7919 10.2766C15.7919 10.5375 15.633 10.763 15.404 10.8585L15.3988 10.8606L9.35842 13.4329C9.35764 13.4333 9.35685 13.4336 9.35606 13.4339C9.12511 13.5298 8.8717 13.583 8.60447 13.583C8.33725 13.583 8.08383 13.5298 7.85287 13.434ZM7.3056 14.741C7.70647 14.908 8.14565 15 8.60447 15C9.06329 15 9.50249 14.908 9.90339 14.741L9.90851 14.7388L15.9489 12.1665C15.9499 12.1661 15.9508 12.1657 15.9518 12.1653C16.6889 11.8569 17.2089 11.1283 17.2089 10.2766C17.2089 9.42487 16.6889 8.69628 15.9518 8.38784C15.9508 8.38745 15.9499 8.38706 15.9489 8.38667L9.9034 5.81219C9.5025 5.64516 9.06329 5.55319 8.60447 5.55319C8.14565 5.55319 7.70644 5.64518 7.30554 5.81221L7.30043 5.81434L1.25719 8.38784C0.520068 8.69627 0 9.42487 0 10.2766C0 11.1283 0.520055 11.8569 1.25716 12.1653L7.3056 14.741Z" fill="#558583"/>
<path fill-rule="evenodd" clip-rule="evenodd" d="M2.16028 6.43407C2.31706 6.07555 2.15351 5.65782 1.79499 5.50104C1.57117 5.40317 1.41702 5.18049 1.41702 4.92341C1.41702 4.66249 1.57589 4.43697 1.80501 4.3415L1.8101 4.33938L7.85284 1.76609C8.08379 1.67022 8.33722 1.61703 8.60447 1.61703C8.8717 1.61703 9.12512 1.67022 9.35606 1.76608C9.35685 1.76641 9.35764 1.76674 9.35842 1.76706L15.4039 4.34152C15.633 4.43699 15.7919 4.66249 15.7919 4.92341C15.7919 5.18044 15.6379 5.40305 15.4141 5.50099C15.0556 5.65788 14.8922 6.07566 15.0491 6.43413C15.206 6.79261 15.6237 6.95602 15.9822 6.79913C16.703 6.48367 17.2089 5.76346 17.2089 4.92341C17.2089 4.07169 16.6889 3.34311 15.9518 3.03467C15.9508 3.03428 15.9499 3.03388 15.9489 3.03349L9.9034 0.459007C9.5025 0.291979 9.06329 0.200009 8.60447 0.200009C8.14565 0.200009 7.70644 0.291999 7.30554 0.459028L7.30043 0.461159L1.25716 3.03467C0.520054 3.34311 0 4.07169 0 4.92341C0 5.76361 0.506163 6.48403 1.22725 6.79935C1.58577 6.95613 2.0035 6.79259 2.16028 6.43407Z" fill="#558583"/>
</svg>
