<svg width="284" height="84" viewBox="0 0 284 84" fill="none" xmlns="http://www.w3.org/2000/svg">
<path d="M107.078 35.9407C107.078 27.2297 104.593 22.7588 99.6273 22.5137C97.6503 22.4205 95.7222 22.7355 93.844 23.4644C92.3463 24.0002 91.3368 24.5316 90.8065 25.0675V45.8576C93.9838 47.8511 96.8061 48.7786 99.2667 48.6333C104.473 48.3004 107.079 44.0625 107.079 35.9418L107.078 35.9407ZM113.205 36.3023C113.205 40.7399 112.168 44.4009 110.08 47.322C107.754 50.628 104.53 52.3298 100.406 52.423C97.2998 52.5339 94.0981 51.5488 90.8032 49.5075V68.4038L85.4736 66.5023V24.5605C86.3478 23.4877 87.4739 22.5669 88.8373 21.7848C92.0102 19.9365 95.8631 18.9858 100.397 18.9392L100.473 19.0146C104.618 18.9625 107.814 20.6643 110.058 24.1156C112.151 27.2818 113.201 31.3267 113.201 36.3012L113.205 36.3023ZM145.774 48.7032C145.774 54.6384 145.179 58.7487 143.99 61.0341C142.801 63.3194 140.521 65.1444 137.163 66.5034C134.44 67.5762 131.496 68.1597 128.335 68.2585L127.454 64.9003C130.667 64.4632 132.929 64.0261 134.24 63.589C136.823 62.7148 138.596 61.3736 139.569 59.5774C140.35 58.113 140.734 55.3218 140.734 51.1882V49.8015C137.139 51.4449 133.23 52.2905 129.277 52.2798C126.743 52.315 124.282 51.435 122.344 49.8015C120.106 47.9998 118.986 45.7144 118.986 42.9454V20.7575L124.315 18.9325V41.2536C124.315 43.6388 125.085 45.4748 126.622 46.7628C128.16 48.0508 130.156 48.671 132.599 48.6222C135.041 48.5734 137.66 47.6237 140.44 45.7766V19.7446H145.768V48.7032H145.774ZM166.575 52.1423L164.82 52.2177C161.806 52.2177 159.456 51.501 157.777 50.0611C156.104 48.6211 155.265 46.6219 155.265 44.0969V23.1072H151.604V19.7546H155.265V10.8417L160.587 8.94685V19.7446H166.575V23.0972H160.587V43.9405C160.587 45.9408 161.123 47.3575 162.196 48.1851C163.117 48.8673 164.581 49.2578 166.575 49.3566V52.1323V52.1423ZM198.839 51.7052H193.511V31.1348C193.511 29.0413 193.023 27.2519 192.047 25.7364C190.922 24.0335 189.359 23.1826 187.354 23.1826C184.911 23.1826 181.856 24.4695 178.19 27.0478V51.6919H172.862V2.52789L178.19 0.848267V23.2425C181.596 20.7641 185.315 19.5227 189.355 19.5227C192.178 19.5227 194.463 20.4735 196.211 22.3683C197.966 24.2632 198.841 26.624 198.841 29.4463V51.6952L198.839 51.7052ZM227.166 35.1009C227.166 31.7538 226.53 28.9903 225.265 26.8048C223.761 24.14 221.423 22.7355 218.263 22.5891C212.421 22.9275 209.505 27.1132 209.505 35.1253C209.505 38.804 210.112 41.877 211.336 44.3332C212.898 47.4762 215.241 49.026 218.367 48.9738C224.232 48.9272 227.165 44.2977 227.165 35.0798L227.166 35.1009ZM233.001 35.1364C233.001 39.9001 231.783 43.864 229.34 47.0291C226.664 50.5736 222.968 52.352 218.251 52.352C213.574 52.352 209.93 50.5736 207.301 47.0291C204.916 43.8629 203.726 39.899 203.726 35.1364C203.726 30.6588 205.013 26.8935 207.591 23.8261C210.314 20.5722 213.893 18.9403 218.319 18.9403C222.746 18.9403 226.348 20.5733 229.123 23.8261C231.7 26.8924 232.988 30.6599 232.988 35.1364H233.001ZM263.552 51.6941H258.223V29.9588C258.223 27.5736 257.506 25.7143 256.071 24.373C254.636 23.0384 252.724 22.3905 250.34 22.4426C247.81 22.4892 245.403 23.3169 243.129 24.921V51.6941H237.8V24.2632C240.867 22.03 243.689 20.5722 246.265 19.8899C248.706 19.2542 250.841 18.9392 252.699 18.9392C253.964 18.9392 255.155 19.0501 256.274 19.3053C258.367 19.789 260.068 20.6876 261.382 22.0044C262.846 23.4622 263.574 25.2217 263.574 27.2574V51.6919L263.552 51.6941Z" fill="#646464"/>
<path d="M32.8439 2.7231C30.1037 2.7342 27.4833 2.96939 25.1802 3.38874C18.3929 4.58689 17.1615 7.09745 17.1615 11.7258V17.8275H33.1989V19.8655H11.1441C6.48467 19.8655 2.40209 22.6667 1.12629 27.9974C-0.345881 34.1068 -0.411335 37.9187 1.12629 44.2966C2.26675 49.0448 4.9892 52.4285 9.64977 52.4285H15.1635V45.1009C15.1635 39.8069 19.7453 35.1385 25.1813 35.1385H41.201C45.6608 35.1385 49.2197 31.4775 49.2197 26.9889V11.7148C49.2197 7.36814 45.5531 4.1043 41.201 3.37765C38.4389 2.92609 35.6426 2.70714 32.8439 2.7231ZM24.1707 7.63773C25.827 7.63773 27.1804 9.01338 27.1804 10.703C27.1804 12.387 25.827 13.7494 24.1707 13.7494C22.5066 13.7494 21.1609 12.387 21.1609 10.703C21.1609 9.01227 22.5077 7.63773 24.1707 7.63773Z" fill="url(#paint0_linear_1_71)"/>
<path d="M51.22 19.8656V26.9879C51.22 32.5094 46.5383 37.1566 41.2021 37.1566H25.1824C20.7948 37.1566 17.1637 40.9119 17.1637 45.3063V60.5782C17.1637 64.9248 20.9434 67.4809 25.1824 68.7278C30.259 70.2211 35.1271 70.4918 41.2021 68.7278C45.2403 67.5585 49.2208 65.2066 49.2208 60.5782V54.4765H33.1989V52.4386H57.2395C61.899 52.4386 63.6374 49.188 65.2582 44.3067C66.9334 39.2834 66.8613 34.4519 65.2582 28.0075C64.1067 23.3669 61.9079 19.8756 57.2395 19.8756H51.2211L51.22 19.8656ZM42.2117 58.5391C43.8758 58.5391 45.2214 59.9015 45.2214 61.5855C45.2214 63.2763 43.8746 64.6508 42.2117 64.6508C40.5553 64.6508 39.2019 63.2752 39.2019 61.5855C39.2019 59.9015 40.5553 58.5391 42.2117 58.5391Z" fill="url(#paint1_linear_1_71)"/>
<path d="M273.929 14.993H274.863V9.13312H277.076V8.4342H271.716V9.13312H273.929V14.993ZM277.905 14.993H278.704V9.64123L280.437 14.9918H281.324L283.129 9.65898V14.993H284V8.43642H282.848L280.876 14.0544L279.193 8.43642H277.906V14.993" fill="#646464"/>
<path opacity="0.444" d="M33.3819 83.2762C45.2518 83.2762 54.8743 81.4101 54.8743 79.1082C54.8743 76.8063 45.2518 74.9402 33.3819 74.9402C21.5121 74.9402 11.8896 76.8063 11.8896 79.1082C11.8896 81.4101 21.5121 83.2762 33.3819 83.2762Z" fill="url(#paint2_radial_1_71)"/>
<defs>
<linearGradient id="paint0_linear_1_71" x1="-0.00529654" y1="2.72421" x2="36.6769" y2="34.5894" gradientUnits="userSpaceOnUse">
<stop stop-color="#5A9FD4"/>
<stop offset="1" stop-color="#306998"/>
</linearGradient>
<linearGradient id="paint1_linear_1_71" x1="41.8245" y1="61.073" x2="28.7247" y2="42.3608" gradientUnits="userSpaceOnUse">
<stop stop-color="#FFD43B"/>
<stop offset="1" stop-color="#FFE873"/>
</linearGradient>
<radialGradient id="paint2_radial_1_71" cx="0" cy="0" r="1" gradientUnits="userSpaceOnUse" gradientTransform="translate(33.382 79.1087) rotate(-90) scale(4.16756 18.3182)">
<stop stop-color="#B8B8B8" stop-opacity="0.498"/>
<stop offset="1" stop-color="#7F7F7F" stop-opacity="0"/>
</radialGradient>
</defs>
</svg>
