<svg width="17" height="17" viewBox="0 0 17 17" fill="none" xmlns="http://www.w3.org/2000/svg">
<path fill-rule="evenodd" clip-rule="evenodd" d="M12.985 1.1989C13.6666 0.941961 14.2105 0.583331 14.7419 0.216355C15.4465 -0.27026 16.4729 0.0945453 16.6208 1.00433C16.9131 2.80255 16.9396 5.21791 16.3427 7.59403C15.7449 9.97418 14.5071 12.3654 12.2298 14.0185C9.57207 15.9479 6.88005 15.4979 5.32265 14.7133C4.94951 14.5253 4.79942 14.0704 4.98741 13.6972C5.17541 13.3241 5.6303 13.174 6.00344 13.362C7.17504 13.9523 9.24086 14.3186 11.3408 12.7941C13.2518 11.4069 14.3366 9.3697 14.8753 7.22546C15.3317 5.40798 15.3852 3.55078 15.2313 2.03912L15.2006 1.73719L14.9431 1.8978C13.8725 2.56552 12.5348 3.15195 10.3704 3.0918C10.0798 3.08372 9.79825 3.07229 9.52233 3.06109L9.52228 3.06109L9.51448 3.06077L9.51447 3.06077C8.73225 3.029 7.99301 2.99897 7.25588 3.05711C6.28918 3.13336 5.43215 3.3594 4.68603 3.89558C3.7199 4.58988 3.19771 5.28164 2.92572 5.92916C2.66004 6.56169 2.60934 7.20861 2.6824 7.8696L2.68372 7.8816L2.68657 7.89334C2.7824 8.28899 3.06547 9.02551 3.55435 9.62541L3.67452 9.77286L3.82128 9.65186C4.96855 8.70595 6.43176 7.86333 8.27444 7.28746C8.67321 7.16286 9.09756 7.38514 9.22216 7.7839C9.34684 8.18275 9.12457 8.6071 8.72573 8.7317C3.65136 10.3174 1.92367 14.1219 1.68241 15.6901C1.61887 16.103 1.23259 16.3863 0.819631 16.3228C0.406653 16.2592 0.123391 15.8729 0.186922 15.46C0.356615 14.357 1.0273 12.6102 2.48192 10.9501L2.5906 10.826L2.48253 10.7015C1.71332 9.8149 1.32115 8.73124 1.19813 8.17216L1.1902 8.13615L1.18582 8.09956C1.08206 7.23317 1.13192 6.29258 1.53071 5.3432C1.92993 4.39276 2.65397 3.49263 3.80303 2.66688C4.85066 1.91401 6.00806 1.63775 7.13697 1.54872C7.97296 1.48277 8.85376 1.5186 9.67127 1.55208L9.67279 1.55214C9.92695 1.56255 10.1752 1.57271 10.4124 1.5793C11.4871 1.60917 12.3011 1.45666 12.985 1.1989ZM9.79827 1.36797C9.75898 1.36638 9.71949 1.36476 9.67983 1.36313L9.67901 1.3631C9.71893 1.36474 9.7587 1.36636 9.79827 1.36797ZM6.08854 13.1931C6.22892 13.2638 6.38281 13.3313 6.5486 13.3923C6.38281 13.3313 6.22893 13.2638 6.08855 13.1931C6.08855 13.1931 6.08855 13.1931 6.08854 13.1931ZM1.86934 15.7188C1.84949 15.8479 1.80442 15.9668 1.73992 16.0713C1.80442 15.9668 1.8495 15.8479 1.86935 15.7188C2.00189 14.8574 2.6102 13.2633 4.04391 11.7648C2.61019 13.2633 2.00188 14.8574 1.86934 15.7188ZM3.70098 9.50593C3.67494 9.47398 3.64951 9.44162 3.62469 9.40892C3.64951 9.44162 3.67494 9.47398 3.70097 9.50593C3.70097 9.50592 3.70097 9.50593 3.70098 9.50593ZM3.58534 9.35613C3.18841 8.81372 2.95338 8.19145 2.87039 7.84882C2.79993 7.21143 2.84978 6.59835 3.10009 6.0024C3.35619 5.39272 3.85317 4.72702 4.79641 4.04917C5.00419 3.89985 5.22153 3.77542 5.44882 3.67224C5.22153 3.77542 5.0042 3.89985 4.79642 4.04917C3.85318 4.72702 3.3562 5.39272 3.1001 6.0024C2.84979 6.59835 2.79995 7.21143 2.8704 7.84882C2.95339 8.19145 3.18842 8.81372 3.58534 9.35613ZM9.51521 3.25009L9.51516 3.25009L9.51515 3.25009C9.51517 3.25009 9.51519 3.25009 9.51521 3.25009Z" fill="#558583"/>
</svg>
