<svg width="16" height="14" viewBox="0 0 16 14" fill="none" xmlns="http://www.w3.org/2000/svg">
<path d="M15.9915 6.51777H15.99L15.9877 0H8.65399V7.33296L14.462 7.33146C14.349 8.31225 13.8989 9.27573 13.1643 10.057C12.0864 11.2019 10.5794 11.8327 8.92121 11.8327V13.3381C10.9693 13.3381 12.9151 12.5184 14.2602 11.089C15.2598 10.0269 15.8575 8.69162 15.9734 7.33146H15.9892V7.17715C16.002 6.95736 16.0043 6.73757 15.9915 6.51777ZM10.1594 5.82678V1.50543H14.4815L14.4838 5.82603L10.1594 5.82678Z" fill="#558583"/>
<path d="M7.33598 6.51777L7.33296 0H0V7.33296L5.80796 7.33146C5.69505 8.31225 5.24493 9.27573 4.51028 10.057C3.43239 11.2019 1.92545 11.8327 0.267214 11.8327V13.3381C2.31536 13.3381 4.26113 12.5184 5.60699 11.089C6.60659 10.0269 7.2035 8.69162 7.31942 7.33146H7.33598V7.17414C7.34877 6.95585 7.35028 6.73681 7.33748 6.51853L7.33598 6.51777ZM1.50543 5.82678V1.50543H5.82828L5.82979 5.82603L1.50543 5.82678Z" fill="#558583"/>
</svg>
